<?xml version="1.0" encoding="UTF-8"?>
<svg width="600" height="300" version="1.1" viewBox="0 0 600.00001 300" xmlns="http://www.w3.org/2000/svg">
 <g transform="translate(0 -752.36)" fill-rule="evenodd">
  <path d="m162.06 872.53c7.153-4.0059 15.543-7.6212 23.811-6.1601 8.1195 1.4347 14.708 7.0034 19.31 13.742 1.0048 1.4714 2.0836 4.1759 3.1985 5.6862 10.498 14.221 25.773 23.213 39.922 33.17 13.724 9.6579 28.047 18.716 43.358 25.588 14.378 6.4536 29.506 11.659 45.016 14.453 11.904 2.144 24.159 2.014 36.25 1.6585 11.351-0.33376 22.945-0.4939 33.881-3.5539 12.111-3.3891 23.448-9.4522 34.117-16.111 10.296-6.4258 19.495-14.533 28.431-22.745 9.378-8.6186 17.633-18.386 26.299-27.72 9.5096-10.243 17.658-21.854 28.194-31.037 6.6384-5.786 13.56-11.813 21.797-14.926 4.2426-1.6033 9.273-3.2899 13.505-1.6585 3.0428 1.1731 5.9591 4.4186 6.397 7.4022 0.67731 4.6148-5.1951 7.8834-6.634 12.32-4.738 14.61-9.052 25.204-14.689 37.851-6.3708 14.292-13.007 28.596-21.56 41.699-8.6565 13.262-18.986 25.44-29.853 36.961-10.473 11.103-23.087 22.476-36.724 30.8-9.2144 5.6245-17.94 9.3795-29.853 12.557-17.561 4.6843-36.405 8.4157-54.493 6.634-30.201-2.9749-61.934-3.7029-91.464-12.327-21.693-6.3355-61.503-28.529-61.503-28.529-11.252-11.186-19.495-16.513-32.666-26.312-7.6921-5.7232-12.756-14.682-19.783-21.205-5.5716-5.1715-13.115-6.8772-17.888-12.794-4.3931-5.4463-8.4861-12.196-8.6478-19.191-0.13709-5.9301 2.7527-11.81 5.4493-16.94 2.5287-4.8109 6.4016-8.5595 9.9509-12.676 2.079-2.411 4.0932-5.0784 6.8709-6.634z" fill="#fb1930" stroke="#000" stroke-width="1px"/>
  <path d="m20.376 772.31s23.282 20.407 34.828 29.379c13.6 10.567 27.641 20.609 42.173 29.853 16.175 10.289 32.912 19.726 49.992 28.431 5.7942 2.9532 11.369 6.9016 17.77 8.0555 2.2593 0.40735 9.1504-0.90953 9.1504-0.90953s-10.634 5.0472-13.652 8.965c-1.0873 1.4115-1.1846 5.2124-1.1846 5.2124s-3.0725-0.25837-4.571 0.29441c-3.7291 1.3756-5.881 4.6265-7.9861 7.998-2.2491 3.602-2.9094 8.0189-4.9755 11.728-0.60034 1.0777-2.0367 5.2758-2.0367 5.2758s-1.9014-14.363-4.3604-20.084c-2.84-6.6075-6.7293-12.796-11.136-18.48-3.8663-4.9876-8.5474-9.3166-13.268-13.505-12.088-10.725-25.663-19.648-38.382-29.616-11.679-9.1524-23.678-17.931-34.828-27.72-7.5966-6.6699-21.797-21.086-21.797-21.086z" fill="#798927" stroke="#000" stroke-linejoin="round" stroke-width="1px"/>
  <path d="m73.921 817.69c11.533 7.184 21.842 15.961 32.933 23.811 6.0626 4.291 12.17 8.5188 18.243 12.794 7.2747 5.1207 14.033 11.057 21.797 15.4 3.1495 1.7617 9.3097 0.71334 9.9509 4.2647 0.42678 2.3637-3.2168 3.6387-5.2124 4.9755-1.2925 0.86574-2.7392 2.2-4.2647 1.8954-6.0809-1.2143-8.4005-9.1289-12.794-13.505-6.3734-6.3478-15.664-13.14-22.626-18.836-10.567-8.6437-20.223-15.655-30.445-23.337-2.98-2.2397-6.3154-4.0509-9.0032-6.6339-0.72921-0.70081-2.5431-1.5925-1.8954-2.3693 0.74672-0.8956 3.317 1.54 3.317 1.54z" fill="#006400" fill-opacity=".67702"/>
  <path d="m166.09 895.28c1.8389 3.9415-2.7566 8.9924-6.397 11.372-1.9929 1.303-4.8126 1.3443-7.1078 0.71078-2.9386-0.81115-6.6699-2.4765-7.3447-5.4493-1.048-4.6165 3.4178-9.0834 6.634-12.557 2.045-2.2088 5.2637-2.9678 7.6367-4.8198 2.1323-1.6643 3.7837-6.5926 5.8681-5.6049 3.2837 1.556 1.8972 7.6664 0.23693 10.899-1.6614 3.2346-6.5967 3.434-9.0032 6.1601-1.9402 2.1978-5.6611 5.384-4.0278 7.8186 1.0158 1.5141 3.9469 0.55922 5.4493-0.47386 2.6776-1.8412 1.3621-7.3052 4.2647-8.7663 1.1484-0.57804 3.2473-0.45429 3.7908 0.71078z" fill="#fd908e" fill-opacity=".2795"/>
  <path d="m170.59 916.6c1.5655 9.5073 13.417 16.366 22.982 17.533 2.5632 0.31269 5.2751-1.2611 7.1078-3.08 3.1872-3.1633 5.4493-12.32 5.4493-12.32s-9.6798-12.648-16.822-14.926c-3.4815-1.1104-11.121 0.30106-14.249 2.1898-3.994 2.4115-5.226 6.0006-4.4679 10.604z" fill="#fd908e" fill-opacity=".2795"/>
  <path d="m202.88 934.97c-1.7286 3.6182 0.26107 8.5295 2.6805 11.727 7.4489 9.845 21.224 12.736 32.501 17.758 16.005 7.1277 32.551 13.343 49.59 17.423 29.182 6.9877 86.772 14.251 88.457 14.073 19.059-2.0104 23.038-2.8486 29.151-13.403 2.8899-4.9892-2.7431-9.1594-8.3766-10.387-29.079-6.3367-42.831 1.9978-63.997-0.67013-17.228-2.1715-34.21-6.6499-50.595-12.397-14.523-5.0944-28.118-12.55-41.883-19.434-7.5977-3.7998-13.956-11.9-22.449-12.062-5.5934-0.10721-12.666 2.3235-15.078 7.3714z" fill="#fd908e" fill-opacity=".2795"/>
  <path d="m411.62 969.81c-2.0955 1.8044-5.2335 3.3049-5.6961 6.0312-1.5557 9.168 2.5988 22.44 11.392 25.465 7.8902 2.7138 14.903-7.5296 22.114-11.727 10.068-5.8609 20.715-11.096 29.486-18.764 9.1294-7.982 15.904-18.321 23.455-27.81 6.9538-8.74 15.01-16.866 20.104-26.805 3.5768-6.9788 4.2963-15.102 7.0364-22.449 1.9574-5.2492 4.02-10.494 6.7013-15.413 3.2765-6.0109 7.2094-11.669 11.392-17.088 2.4652-3.194 5.4509-6.6855 8.0416-9.0468 1.7354-1.5818 4.046-3.3764 6.3662-3.0156 2.2644 0.35215 2.7706 5.0969 5.026 4.6909 1.9663-0.35397 3.3324-3.4724 2.6805-5.361-0.76619-2.2196-4.0215-2.8893-6.3662-3.0156-5.4317-0.29261-10.833 2.4263-15.413 5.361-13.568 8.6939-22.678 22.913-33.506 34.847-11.657 12.847-21.955 26.902-33.842 39.538-6.6027 7.0188-11.707 23.368-20.774 20.104-1.9032-0.68517-0.45619 0.3876-2.3454-0.33507-9.2349-3.5324-12.681 7.9434-20.439 14.073-4.9109 3.8797-10.67 6.6384-15.413 10.722z" fill="#fd908e" fill-opacity=".2795"/>
  <path d="m400.23 996.62c3.4766 2.4369 2.8864 9.3389 0.33507 12.733-3.1906 4.244-10.106 3.8673-15.413 4.0207-6.2619 0.181-14.776 1.4036-18.429-3.6857-2.0356-2.8361-1.4959-8.3514 1.3403-10.387 4.164-2.9887 9.9623 3.3341 15.078 3.0156 5.9926-0.3731 12.172-9.1425 17.088-5.6961z" fill="#fd908e" fill-opacity=".2795"/>
 </g>
</svg>
