<?xml version="1.0" encoding="UTF-8" standalone="no"?>
<!-- Created with Inkscape (http://www.inkscape.org/) -->

<svg
   xmlns:dc="http://purl.org/dc/elements/1.1/"
   xmlns:cc="http://creativecommons.org/ns#"
   xmlns:rdf="http://www.w3.org/1999/02/22-rdf-syntax-ns#"
   xmlns:svg="http://www.w3.org/2000/svg"
   xmlns="http://www.w3.org/2000/svg"
   xmlns:sodipodi="http://sodipodi.sourceforge.net/DTD/sodipodi-0.dtd"
   xmlns:inkscape="http://www.inkscape.org/namespaces/inkscape"
   width="221.83371mm"
   height="163.03441mm"
   viewBox="0 0 221.83371 163.03441"
   version="1.1"
   id="svg2590"
   inkscape:version="0.92.4 (5da689c313, 2019-01-14)"
   sodipodi:docname="Avocado Fruits.svg">
  <defs
     id="defs2584" />
  <sodipodi:namedview
     id="base"
     pagecolor="#ffffff"
     bordercolor="#666666"
     borderopacity="1.0"
     inkscape:pageopacity="0.0"
     inkscape:pageshadow="2"
     inkscape:zoom="0.49497475"
     inkscape:cx="13.375531"
     inkscape:cy="388.24389"
     inkscape:document-units="mm"
     inkscape:current-layer="layer1"
     showgrid="false"
     fit-margin-top="0"
     fit-margin-left="0"
     fit-margin-right="0"
     fit-margin-bottom="0"
     inkscape:window-width="1920"
     inkscape:window-height="1001"
     inkscape:window-x="-9"
     inkscape:window-y="-9"
     inkscape:window-maximized="1" />
  <metadata
     id="metadata2587">
    <rdf:RDF>
      <cc:Work
         rdf:about="">
        <dc:format>image/svg+xml</dc:format>
        <dc:type
           rdf:resource="http://purl.org/dc/dcmitype/StillImage" />
        <dc:title></dc:title>
      </cc:Work>
    </rdf:RDF>
  </metadata>
  <g
     inkscape:label="Layer 1"
     inkscape:groupmode="layer"
     id="layer1"
     transform="translate(10.37519,-46.905418)">
    <path
       style="opacity:1;vector-effect:none;fill:#ffffff;fill-opacity:1;stroke:none;stroke-width:0.5;stroke-linecap:round;stroke-linejoin:miter;stroke-miterlimit:4;stroke-dasharray:none;stroke-dashoffset:0;stroke-opacity:1;paint-order:stroke fill markers"
       d="M -10.37519,46.905418 H 211.45852 V 209.93983 H -10.37519 Z"
       id="rect3185"
       inkscape:connector-curvature="0" />
    <path
       style="opacity:1;vector-effect:none;fill:#e6e6e6;fill-opacity:1;stroke:none;stroke-width:0.5;stroke-linecap:round;stroke-linejoin:miter;stroke-miterlimit:4;stroke-dasharray:none;stroke-dashoffset:0;stroke-opacity:1;paint-order:stroke fill markers"
       d="m 183.92975,182.1438 a 83.388092,15.768902 0 0 1 -83.38809,15.7689 83.388092,15.768902 0 0 1 -83.388096,-15.7689 83.388092,15.768902 0 0 1 83.388096,-15.7689 83.388092,15.768902 0 0 1 83.38809,15.7689 z"
       id="path3187"
       inkscape:connector-curvature="0" />
    <g
       id="g3181"
       transform="matrix(0.8931648,0,0,0.8931648,10.741389,13.720057)"
       style="stroke-width:1.11961424">
      <path
         sodipodi:nodetypes="cscc"
         inkscape:connector-curvature="0"
         id="path2687"
         d="m 61.965102,77.158453 c 0,0 8.415592,-15.97048 25.294085,-15.95662 16.878493,0.0139 30.021383,6.03724 30.021383,6.03724 0,0 -26.615378,24.07264 -55.315468,9.91938 z"
         style="fill:#87be37;fill-opacity:1;stroke:none;stroke-width:0.29623124px;stroke-linecap:butt;stroke-linejoin:miter;stroke-opacity:1" />
      <path
         inkscape:connector-curvature="0"
         id="path2689"
         d="m 109.76788,69.113713 c 0,0 -34.928584,-0.0923 -52.504477,9.82956 l 0.472472,1.32291 c 0,0 13.255223,-9.64274 52.032005,-11.15247 z"
         style="fill:#386811;fill-opacity:1;stroke:none;stroke-width:0.29623124px;stroke-linecap:butt;stroke-linejoin:miter;stroke-opacity:1" />
      <path
         sodipodi:nodetypes="sssssss"
         inkscape:connector-curvature="0"
         id="path2639"
         d="m 97.976807,162.3757 c 0,22.1229 -17.677681,33.26772 -40.342209,33.26772 -22.664518,0 -41.733308,-11.14482 -41.733308,-33.26772 0,-9.96994 10.68707,-23.81238 16.86122,-38.49852 7.52606,-17.90189 3.375,-36.136347 24.176535,-35.957847 20.90228,0.17936 18.003576,17.652787 25.531244,35.746237 6.057361,14.55945 15.506518,28.84583 15.506518,38.71013 z"
         style="opacity:1;vector-effect:none;fill:#386811;fill-opacity:1;stroke:none;stroke-width:16.79421234;stroke-linecap:square;stroke-linejoin:miter;stroke-miterlimit:4;stroke-dasharray:none;stroke-dashoffset:0;stroke-opacity:1;paint-order:stroke fill markers" />
      <path
         style="opacity:1;vector-effect:none;fill:#427a14;fill-opacity:1;stroke:none;stroke-width:16.79421234;stroke-linecap:square;stroke-linejoin:miter;stroke-miterlimit:4;stroke-dasharray:none;stroke-dashoffset:0;stroke-opacity:1;paint-order:stroke fill markers"
         d="m 185.18204,162.3757 c 0,22.1229 -17.67768,33.26772 -40.34221,33.26772 -22.66452,0 -41.7333,-11.14482 -41.7333,-33.26772 0,-9.96994 10.68707,-23.81238 16.86121,-38.49852 7.52607,-17.90189 3.375,-36.136347 24.17654,-35.957847 20.90228,0.17936 18.00358,17.652787 25.53124,35.746237 6.05737,14.55945 15.50652,28.84583 15.50652,38.71013 z"
         id="path2642"
         inkscape:connector-curvature="0"
         sodipodi:nodetypes="sssssss" />
      <path
         sodipodi:nodetypes="sssssss"
         inkscape:connector-curvature="0"
         id="path2644"
         d="m 181.78025,160.76578 c 0,21.1041 -16.21231,31.73566 -36.99808,31.73566 -20.78576,0 -38.27385,-10.63158 -38.27385,-31.73566 0,-9.51079 9.80117,-22.71576 15.46351,-36.72555 6.9022,-17.07747 3.09523,-34.472177 22.17245,-34.301897 19.16961,0.17111 16.51119,16.839827 23.41485,34.100027 5.55525,13.88896 14.22112,27.5174 14.22112,36.92742 z"
         style="opacity:1;vector-effect:none;fill:#80d33c;fill-opacity:1;stroke:none;stroke-width:16.79421234;stroke-linecap:square;stroke-linejoin:miter;stroke-miterlimit:4;stroke-dasharray:none;stroke-dashoffset:0;stroke-opacity:1;paint-order:stroke fill markers" />
      <path
         style="opacity:1;vector-effect:none;fill:#c5e178;fill-opacity:1;stroke:none;stroke-width:16.79421043;stroke-linecap:square;stroke-linejoin:miter;stroke-miterlimit:4;stroke-dasharray:none;stroke-dashoffset:0;stroke-opacity:1;paint-order:stroke fill markers"
         d="m 179.26542,159.26469 c 0,20.19202 -15.12901,30.36412 -34.52587,30.36412 -19.39686,0 -35.71639,-10.17211 -35.71639,-30.36412 0,-9.09976 9.14625,-21.73404 14.43023,-35.13836 6.441,-16.33942 2.88841,-32.982377 20.69089,-32.819457 17.8887,0.16371 15.40791,16.112057 21.85027,32.626317 5.18405,13.28871 13.27087,26.32817 13.27087,35.3315 z"
         id="path2646"
         inkscape:connector-curvature="0"
         sodipodi:nodetypes="sssssss" />
      <path
         style="opacity:1;vector-effect:none;fill:#abd663;fill-opacity:1;stroke:none;stroke-width:16.79421425;stroke-linecap:square;stroke-linejoin:miter;stroke-miterlimit:4;stroke-dasharray:none;stroke-dashoffset:0;stroke-opacity:1;paint-order:stroke fill markers"
         d="m 164.37552,161.68481 a 19.83032,19.83032 0 0 1 -19.83032,19.83032 19.83032,19.83032 0 0 1 -19.83032,-19.83032 19.83032,19.83032 0 0 1 19.83032,-19.83032 19.83032,19.83032 0 0 1 19.83032,19.83032 z"
         id="circle2652"
         inkscape:connector-curvature="0" />
      <path
         style="opacity:1;vector-effect:none;fill:#6d4319;fill-opacity:1;stroke:none;stroke-width:16.79421425;stroke-linecap:square;stroke-linejoin:miter;stroke-miterlimit:4;stroke-dasharray:none;stroke-dashoffset:0;stroke-opacity:1;paint-order:stroke fill markers"
         d="m 163.97461,157.16812 a 19.83032,19.83032 0 0 1 -19.83032,19.83032 19.83032,19.83032 0 0 1 -19.83032,-19.83032 19.83032,19.83032 0 0 1 19.83032,-19.83032 19.83032,19.83032 0 0 1 19.83032,19.83032 z"
         id="path2650"
         inkscape:connector-curvature="0" />
      <path
         inkscape:connector-curvature="0"
         id="circle2656"
         d="m 144.14419,137.33774 a 19.83032,19.83032 0 0 0 -16.22434,8.44703 21.153236,21.153236 0 0 0 -0.39326,4.01268 21.153236,21.153236 0 0 0 21.15323,21.15324 21.153236,21.153236 0 0 0 12.94598,-4.43797 19.83032,19.83032 0 0 0 2.3487,-9.34466 19.83032,19.83032 0 0 0 -19.83031,-19.83032 z"
         style="opacity:1;vector-effect:none;fill:#7b4c1c;fill-opacity:1;stroke:none;stroke-width:16.79421425;stroke-linecap:square;stroke-linejoin:miter;stroke-miterlimit:4;stroke-dasharray:none;stroke-dashoffset:0;stroke-opacity:1;paint-order:stroke fill markers" />
      <path
         inkscape:connector-curvature="0"
         id="circle2663"
         d="m 147.53698,141.36578 a 2.50025,2.50025 0 1 0 0,5 c 3.47511,0 6.24024,2.76317 6.24024,6.23828 a 2.50025,2.50025 0 1 0 5,0 c 0,-6.17731 -5.06292,-11.23828 -11.24024,-11.23828 z"
         style="color:#000000;font-style:normal;font-variant:normal;font-weight:normal;font-stretch:normal;font-size:medium;line-height:normal;font-family:sans-serif;font-variant-ligatures:normal;font-variant-position:normal;font-variant-caps:normal;font-variant-numeric:normal;font-variant-alternates:normal;font-feature-settings:normal;text-indent:0;text-align:start;text-decoration:none;text-decoration-line:none;text-decoration-style:solid;text-decoration-color:#000000;letter-spacing:normal;word-spacing:normal;text-transform:none;writing-mode:lr-tb;direction:ltr;text-orientation:mixed;dominant-baseline:auto;baseline-shift:baseline;text-anchor:start;white-space:normal;shape-padding:0;clip-rule:nonzero;display:inline;overflow:visible;visibility:visible;opacity:1;isolation:auto;mix-blend-mode:normal;color-interpolation:sRGB;color-interpolation-filters:linearRGB;solid-color:#000000;solid-opacity:1;vector-effect:none;fill:#a36525;fill-opacity:1;fill-rule:nonzero;stroke:none;stroke-width:5.5980711;stroke-linecap:round;stroke-linejoin:miter;stroke-miterlimit:4;stroke-dasharray:none;stroke-dashoffset:0;stroke-opacity:1;paint-order:stroke fill markers;color-rendering:auto;image-rendering:auto;shape-rendering:auto;text-rendering:auto;enable-background:accumulate" />
      <path
         inkscape:connector-curvature="0"
         id="path2672"
         d="m 144.3727,93.044323 c -8.28262,-0.0788 -11.58659,3.9127 -13.57454,9.897587 2.15903,-4.875707 5.73673,-8.002097 13.39248,-7.932327 10.99596,0.1002 14.04654,6.334247 16.40247,14.944817 -2.36144,-9.61274 -4.89373,-16.802387 -16.22041,-16.910077 z m 19.78006,30.058117 c 0.36629,1.12091 0.76243,2.24847 1.20579,3.38015 1.32083,3.37147 2.83489,6.72093 4.35108,9.99267 -1.73874,-3.89034 -3.52465,-7.90395 -5.04699,-11.95792 -0.17737,-0.47233 -0.34637,-0.94392 -0.50988,-1.4149 z"
         style="opacity:1;vector-effect:none;fill:#d3ecab;fill-opacity:1;stroke:none;stroke-width:16.79421043;stroke-linecap:square;stroke-linejoin:miter;stroke-miterlimit:4;stroke-dasharray:none;stroke-dashoffset:0;stroke-opacity:1;paint-order:stroke fill markers" />
      <path
         inkscape:connector-curvature="0"
         id="path2679"
         d="M 65.904515,91.491453 C 47.19678,91.330913 50.930175,107.73008 44.16166,123.83004 c -5.55269,13.20789 -15.16394,25.65734 -15.16393,34.62372 0,19.89609 17.14939,29.91911 37.532586,29.91911 10.43428,0 19.691662,-2.62812 26.244393,-7.86102 3.32055,-4.87402 5.202267,-10.92101 5.202267,-18.13636 0,-9.86429 -9.449184,-24.15033 -15.506546,-38.70978 -5.4218,-13.0318 -5.435854,-25.741377 -12.828675,-31.899857 -1.143447,-0.16741 -2.383174,-0.26279 -3.73724,-0.2744 z"
         style="opacity:1;vector-effect:none;fill:#427a14;fill-opacity:1;stroke:none;stroke-width:16.79421234;stroke-linecap:square;stroke-linejoin:miter;stroke-miterlimit:4;stroke-dasharray:none;stroke-dashoffset:0;stroke-opacity:1;paint-order:stroke fill markers" />
      <path
         sodipodi:nodetypes="ssssssss"
         inkscape:connector-curvature="0"
         id="rect2684"
         d="m 58.121722,63.755443 c 1.20395,0 1.499217,5.28768 1.552279,6.77297 l 0.620908,17.3797 c 0.05306,1.48529 -0.969243,2.68364 -2.173189,2.68364 -1.20395,0 -2.226649,-1.19837 -2.173193,-2.68364 l 0.620911,-17.25191 c 0.05345,-1.48526 0.348332,-6.90076 1.552282,-6.90076 z"
         style="opacity:1;vector-effect:none;fill:#427a14;fill-opacity:1;stroke:none;stroke-width:5.59807158;stroke-linecap:round;stroke-linejoin:miter;stroke-miterlimit:4;stroke-dasharray:none;stroke-dashoffset:0;stroke-opacity:1;paint-order:stroke fill markers" />
      <path
         sodipodi:nodetypes="ccssccssc"
         inkscape:connector-curvature="0"
         id="path2691"
         d="m 71.893298,94.116613 c 0.647068,3.4605 2.835833,7.468947 3.959958,12.535717 1.785863,5.86629 1.801278,13.00384 4.727366,20.03697 6.057363,14.55945 15.506546,28.84549 15.506546,38.70978 0,5.84703 -1.236432,10.92671 -3.472137,15.23679 0.0529,-0.0416 0.107122,-0.0821 0.159678,-0.12402 3.32055,-4.87402 5.202267,-10.92101 5.202267,-18.13636 0,-9.86429 -9.449184,-24.15033 -15.506546,-38.70978 C 77.665406,112.11639 77.103949,100.824 71.893298,94.116613 Z"
         style="opacity:1;vector-effect:none;fill:#509418;fill-opacity:1;stroke:none;stroke-width:16.79421234;stroke-linecap:square;stroke-linejoin:miter;stroke-miterlimit:4;stroke-dasharray:none;stroke-dashoffset:0;stroke-opacity:1;paint-order:stroke fill markers" />
    </g>
  </g>
</svg>
