<?xml version="1.0" encoding="utf-8"?>
<!-- Generator: Adobe Illustrator 26.0.1, SVG Export Plug-In . SVG Version: 6.00 Build 0)  -->
<svg version="1.1" xmlns="http://www.w3.org/2000/svg" xmlns:xlink="http://www.w3.org/1999/xlink" x="0px" y="0px"
	 viewBox="0 0 734.25 126.48" style="enable-background:new 0 0 734.25 126.48;" xml:space="preserve">
<style type="text/css">
	.st0{fill:#E1F9F9;stroke:#203A40;stroke-miterlimit:10;}
	.st1{opacity:0.7;}
	.st2{fill:#4A8917;}
	.st3{fill:#89E240;}
	.st4{fill:#D2F080;}
	.st5{fill:#B7E56A;}
	.st6{fill:#7C4C1D;}
	.st7{fill:#8A5620;}
	.st8{fill:#B26F28;}
	.st9{fill:#E1FBB6;}
	.st10{fill:#0396A6;stroke:#203A40;stroke-miterlimit:10;}
	.st11{font-family:'Futura-Bold';}
	.st12{font-size:72px;}
	.st13{fill:#203A40;}
	.st14{font-size:24px;}
	.st15{fill:#203A40;stroke:#203A40;stroke-miterlimit:10;}
</style>
<g id="Logo_06:_600_x__x_600_px">
	<g id="Graphic_Elements_5_">
	</g>
	<g id="Text_5_">
	</g>
</g>
<g id="Logo_05:_600_x__x_600_px">
	<g id="Graphic_Elements_4_">
	</g>
	<g id="Text_4_">
	</g>
</g>
<g id="Logo_04:_600_x__x_600_px">
	<g id="Graphic_Elements_3_">
	</g>
	<g id="Text_3_">
	</g>
</g>
<g id="Logo_03:_600_x__x_600_px">
	<g id="Graphic_Elements_2_">
	</g>
	<g id="Text_2_">
		<g>
			<rect class="st0" width="733.41" height="126.48"/>
			<g class="st1">
				
					<sodipodi:namedview  bordercolor="#666666" borderopacity="1.0" fit-margin-bottom="0" fit-margin-left="0" fit-margin-right="0" fit-margin-top="0" id="base" pagecolor="#ffffff" showgrid="false">
					</sodipodi:namedview>
				<path id="path2642" class="st2" d="M27.45,0c3.33-6.13,6.53-12.41,9.3-18.76c15.66-35.9,7.02-72.47,50.3-72.11
					c43.49,0.36,37.46,35.4,53.12,71.69c12.6,29.2,32.26,57.85,32.26,77.63c0,44.37-36.78,66.71-83.93,66.71S1.67,102.81,1.67,58.45
					C1.67,42.77,15.35,22.31,27.45,0"/>
				<path id="path2644" class="st3" d="M165.35,55.22c0,42.32-33.73,63.64-76.98,63.64S8.75,97.54,8.75,55.22
					c0-19.07,20.39-45.55,32.17-73.65c14.36-34.25,6.44-69.13,46.13-68.79c39.88,0.34,34.35,33.77,48.72,68.38
					C147.32,9.02,165.35,36.35,165.35,55.22z"/>
				<path id="path2646" class="st4" d="M160.12,52.21c0,40.49-31.48,60.89-71.83,60.89S13.98,92.7,13.98,52.21
					c0-18.25,19.03-43.59,30.02-70.47c13.4-32.77,6.01-66.14,43.05-65.82c37.22,0.33,32.06,32.31,45.46,65.43
					C143.3,8,160.12,34.15,160.12,52.21L160.12,52.21z"/>
				<path id="circle2652" class="st5" d="M129.14,57.06c0,21.96-18.47,39.77-41.26,39.77l0,0c-22.79,0-41.26-17.8-41.26-39.77l0,0
					c0-21.96,18.47-39.77,41.26-39.77l0,0C110.67,17.29,129.14,35.1,129.14,57.06L129.14,57.06z"/>
				<path id="path2650" class="st6" d="M128.31,48c0,21.96-18.47,39.77-41.26,39.77l0,0c-22.79,0-41.26-17.8-41.26-39.77l0,0
					c0-21.96,18.47-39.77,41.26-39.77l0,0C109.84,8.24,128.31,26.04,128.31,48L128.31,48z"/>
				<path id="circle2656" class="st7" d="M87.05,8.24c-13.44,0.01-26.04,6.33-33.76,16.94c-0.54,2.65-0.81,5.35-0.82,8.05
					c0,23.43,19.7,42.42,44.01,42.42c9.75-0.01,19.23-3.14,26.93-8.9c3.2-5.76,4.88-12.2,4.89-18.74
					C128.31,26.04,109.84,8.24,87.05,8.24z"/>
				<path id="circle2663" class="st8" d="M94.11,16.31c-2.87-0.04-5.23,2.17-5.27,4.94c-0.04,2.77,2.26,5.05,5.13,5.08
					c0.05,0,0.1,0,0.15,0c7.23,0,12.98,5.54,12.98,12.51c-0.04,2.77,2.26,5.05,5.13,5.08c2.87,0.04,5.23-2.17,5.27-4.94
					c0-0.05,0-0.09,0-0.14C117.49,26.46,106.96,16.31,94.11,16.31z"/>
				<path id="path2672" class="st9" d="M87.52-80.59c-17.23-0.16-24.11,7.85-28.24,19.85c4.49-9.78,11.94-16.05,27.86-15.91
					c22.88,0.2,29.22,12.7,34.13,29.97C116.36-65.95,111.09-80.37,87.52-80.59z M128.68-20.31c0.76,2.25,1.59,4.51,2.51,6.78
					c2.75,6.76,5.9,13.48,9.05,20.04c-3.62-7.8-7.33-15.85-10.5-23.98C129.37-18.42,129.02-19.37,128.68-20.31z"/>
			</g>
			<g>
				<g>
					<text transform="matrix(1 0 0 1 27.3214 99.2434)" class="st10 st11 st12">Good Food Mood</text>
				</g>
				<g>
					<text transform="matrix(1 0 0 1 181.1861 34.1624)" class="st13 st11 st14">Healthy and interesting food</text>
				</g>
			</g>
			<line class="st15" x1="26.31" y1="0" x2="150.41" y2="0"/>
		</g>
	</g>
</g>
<g id="Logo_02:_600_x__x_600_px">
	<g id="Graphic_Elements_1_">
	</g>
	<g id="Text_1_">
	</g>
</g>
<g id="Logo_01:_600_x__x_600_px">
	<g id="Graphic_Elements">
	</g>
	<g id="Text">
	</g>
</g>
</svg>
