<?xml version="1.0" encoding="UTF-8"?>
<!DOCTYPE svg  PUBLIC '-//W3C//DTD SVG 1.1//EN'  'http://www.w3.org/Graphics/SVG/1.1/DTD/svg11.dtd'>
<svg enable-background="new 0 0 60.4 39.3" version="1.1" viewBox="0 0 60.4 39.3" xml:space="preserve" xmlns="http://www.w3.org/2000/svg" xmlns:xlink="http://www.w3.org/1999/xlink">
<symbol id="a" viewBox="-0.028 -24.653 28.955 24.641">
		<g clip-rule="evenodd" fill-rule="evenodd">
				<linearGradient id="i" x1="-3023.3" x2="-3014.8" y1="-10916" y2="-10916" gradientTransform="matrix(.3885 -.6415 .6415 .3885 8193.4 2282)" gradientUnits="userSpaceOnUse">
				<stop stop-color="#E9B140" offset="0"/>
				<stop stop-color="#C47E00" offset="1"/>
			</linearGradient>
			<path d="m18.525-9.525c5.375-0.125 8.312-1.175 8.813-3.149 0.65-2.625 0.475-4.875-0.525-6.75-1.075-2-3-3.413-5.775-4.237-1.925-0.576-4.387-0.9-7.387-0.976s-5.288 0.125-6.863 0.601c-4.1 1.25-6.188 3.5-6.262 6.75 0 1.025 0.188 2.075 0.563 3.149l0.6 1.351c1.5 0.25 2.987 0.7 4.463 1.35 3.173 1.398 7.298 2.036 12.373 1.911z" fill="url(#i)"/>
			<path d="m1.162-14.025c0.925 1.65 5.35 2.476 13.275 2.476 7.65-0.025 11.9-0.513 12.75-1.463 0.7-0.8 0.65-1.9-0.15-3.3-0.8-1.425-2.049-2.5-3.75-3.225-1.949-0.85-4.175-1.45-6.675-1.801-3.025-0.425-6.125-0.399-9.3 0.075-2.65 0.375-4.563 1.288-5.737 2.737-1.15 1.401-1.287 2.901-0.413 4.501z" fill="#FFD15B"/>
			<path d="m26.063-10.088c0.425-0.225 0.8-0.65 1.125-1.274 0.3-0.625 0.4-1.175 0.3-1.65-0.05-0.35-0.125-0.7-0.225-1.05-0.05-0.3-0.063-0.813-0.038-1.537 0.025-0.75-0.162-1.338-0.563-1.763-0.174-0.175-0.625-0.475-1.35-0.9-0.325-0.175-0.813-0.275-1.463-0.3s-1.187-0.163-1.612-0.412c-1.45-0.825-2.85-1.263-4.2-1.313-0.675-0.025-1.512-0.275-2.512-0.75-1.426-0.7-2.338-1.113-2.738-1.238-0.924-0.325-1.812-0.412-2.662-0.262-0.75 0.125-1.212 0.375-1.388 0.75-0.25 0.575-1.649 1.162-4.2 1.762-1.4 0.325-2.225 1.3-2.475 2.926-0.05 0.225-0.338 0.662-0.862 1.313-0.5 0.623-0.775 1.086-0.825 1.386-0.05 0.325 0.375 0.763 1.275 1.313 1.025 0.625 1.574 1.025 1.649 1.2 0.45 0.875 4.263 1.475 11.438 1.8 6.876 0.324 10.651 0.324 11.326-1e-3z" fill="#57390D"/>
			<path d="m23.55-8.662l2.513-1.426c0.875-0.524 1.363-1.162 1.463-1.912 0.024-0.075-0.013-0.6-0.113-1.575-0.025-0.55-0.163-1.325-0.413-2.325-0.075-0.475-0.275-0.837-0.6-1.087-0.45-0.275-0.838-0.538-1.163-0.788-0.35-0.275-0.837-0.425-1.462-0.449-0.85-0.05-1.426-0.125-1.726-0.226-0.775-0.35-1.337-0.587-1.688-0.712-0.625-0.275-1.162-0.4-1.612-0.375-1.2 0.074-2.475-0.213-3.825-0.863-1.85-0.899-3.412-1.274-4.688-1.125-0.625 0.075-1.05 0.226-1.274 0.45-0.175 0.25-0.313 0.45-0.413 0.601-0.2 0.275-1.425 0.712-3.675 1.313-0.85 0.225-1.388 0.524-1.612 0.899-0.15 0.225-0.237 0.637-0.262 1.237-0.025 0.375-0.288 0.8-0.787 1.275-0.601 0.525-1.051 0.95-1.351 1.275-0.375 0.399-0.325 0.774 0.15 1.125 0.4 0.3 0.787 0.449 1.162 0.449 0.075 0 0.413 0.413 1.013 1.238 0.625 0.875 1.288 1.4 1.987 1.574 0.9 0.351 4.225 0.7 9.976 1.051 2.9 0.15 5.7 0.276 8.4 0.376z" fill="#80561C"/>
			<path d="m26.063-9.787c1.575-0.5 2.5-1.163 2.775-1.988 0.2-0.6 0.062-1.125-0.413-1.574-0.275-0.275-0.737-0.525-1.388-0.75-0.149-0.075-0.875-0.325-2.175-0.75-0.6-0.201-1.075-0.75-1.425-1.65-0.375-0.925-0.737-1.475-1.088-1.65-0.325-0.149-0.924-0.524-1.8-1.125-0.85-0.549-1.575-0.95-2.175-1.199-0.65-0.275-1.4-0.301-2.25-0.075-1.425 0.375-2.263 0.575-2.513 0.6-0.475 0.05-1.15 0.025-2.024-0.075-0.576-0.074-1.175 0.013-1.801 0.263-2.023 0.572-3.586 1.11-4.686 1.61-0.5 0.226-1.025 0.601-1.574 1.125-0.45 0.425-0.938 0.7-1.463 0.825-0.55 0.15-0.925 0.525-1.125 1.125-0.25 0.8-0.487 1.3-0.713 1.5-0.675 0.55 0 0.9 2.025 1.05 0.8 0.55 4.487 1.275 11.063 2.176 6.875 0.924 11.125 1.111 12.75 0.562z" fill="#57390D"/>
			<path d="m25.688-9.6c0.875-0.175 1.55-0.438 2.025-0.788 0.3-0.225 0.637-0.587 1.012-1.087 0.275-0.351 0.25-0.688-0.074-1.013-0.175-0.15-0.663-0.438-1.463-0.862-0.4-0.201-1.013-0.425-1.838-0.676-0.8-0.25-1.362-0.462-1.688-0.637-0.325-0.175-0.587-0.613-0.787-1.313-0.225-0.8-0.525-1.338-0.9-1.613-0.675-0.548-1.9-1.211-3.675-1.986-0.475-0.225-1.063-0.275-1.763-0.149-0.174 0.024-0.75 0.174-1.725 0.449-0.425 0.125-1.088 0.125-1.987 0-1.175-0.125-1.825-0.188-1.95-0.188-0.4 0-1 0.15-1.8 0.45-1.025 0.4-1.8 0.663-2.325 0.788-0.75 0.175-1.325 0.513-1.725 1.012-0.3 0.525-0.525 0.838-0.675 0.938-0.074 0.05-0.549 0.263-1.425 0.638-0.775 0.324-1.237 0.587-1.388 0.787-0.1 0.149-0.174 0.412-0.225 0.787-0.025 0.325-0.15 0.563-0.375 0.713-0.325 0.225-0.388 0.425-0.188 0.6 0.225 0.15 0.538 0.137 0.938-0.037 0.225-0.1 0.587 0.125 1.088 0.675 0.575 0.65 1.187 0.987 1.837 1.013 3.2 0.325 6.475 0.625 9.825 0.899 6.7 0.575 10.45 0.775 11.251 0.6z" fill="#80561C"/>
			<path d="m19.05-17.438c-0.175-0.375-0.35-0.663-0.524-0.862-0.05-0.075-0.25-0.288-0.601-0.638-0.2-0.2-0.263-0.638-0.188-1.313 0.05-0.4 0.138-0.95 0.263-1.65 0.025-0.425 0-0.712-0.075-0.862-0.05-0.125-0.188-0.188-0.412-0.188-0.425 0-0.563 0.438-0.413 1.313 0.05 0.35 0.038 0.738-0.037 1.163-0.075 0.399-0.125 0.662-0.15 0.787-0.024 0.175-0.25 0.288-0.675 0.338-0.4 0.05-0.65 0.037-0.75-0.038-0.025-0.025-0.025-0.212 0-0.563 0.05-0.325 0.013-0.575-0.112-0.75-0.15-0.2-0.313-0.212-0.487-0.037-0.177 0.175-0.239 0.338-0.189 0.488l0.225 0.6c0.05 0.275-0.037 0.488-0.263 0.638-0.225 0.175-0.512 0.288-0.862 0.338-0.4 0.025-0.712 0.062-0.938 0.112-0.899 0.15-1.55 0.125-1.95-0.075-0.225-0.125-0.475-0.175-0.75-0.149-0.425 0.05-0.837 0.037-1.237-0.038-0.524-0.1-0.875-0.3-1.05-0.6-0.075-0.176-0.125-0.526-0.15-1.051-0.024-0.4-0.174-0.688-0.449-0.863-0.276-0.174-0.601-0.2-0.976-0.074-0.275 0.074-0.337 0.225-0.188 0.449 0.2 0.351 0.275 0.663 0.226 0.938-0.075 0.325-0.025 0.688 0.149 1.088 0.075 0.15 0 0.338-0.225 0.563-0.275 0.225-0.475 0.4-0.601 0.525-0.149 0.125-0.237 0.387-0.262 0.787-0.024 0.475-0.062 0.762-0.112 0.862-0.275 0.5-0.899 0.85-1.875 1.05-0.399 0.1-0.787 0.301-1.162 0.601-0.4 0.325-0.625 0.5-0.675 0.524-0.15 0.05-0.288-0.074-0.413-0.375-0.1-0.3-0.174-0.65-0.225-1.05-0.1-0.625-0.313-0.688-0.638-0.188-0.1 0.15-0.137 0.338-0.112 0.563 0.1 0.275 0.163 0.5 0.188 0.675 0.025 0.15 0.1 0.388 0.225 0.713 0.125 0.25 0.175 0.412 0.15 0.487-0.05 0.125 0.05 0.275 0.3 0.45 0.226 0.15 0.538 0.275 0.938 0.375 0.375 0.075 0.65 0.225 0.825 0.45 0.1 0.125 0.238 0.387 0.412 0.787 8.725 1.825 14.226 2.9 16.5 3.226 1.4 0.225 2.963 0.024 4.688-0.601 0.875-0.325 1.825-0.75 2.851-1.274 0.675-0.25 1.087-0.7 1.237-1.351-0.125 0-0.288 0.088-0.487 0.263-0.15 0.15-0.375 0.212-0.675 0.188-0.325-0.025-0.55-0.163-0.676-0.412-0.074-0.15-0.1-0.463-0.074-0.938 0.024-0.475-0.05-0.825-0.226-1.051-0.175-0.25-0.512-0.487-1.013-0.712-0.6-0.275-0.975-0.475-1.125-0.601-0.25-0.2-0.287-0.375-0.112-0.524l0.487-0.413c0.125-0.225 0.175-0.5 0.15-0.824-0.025-0.4-0.163-0.638-0.412-0.713-0.325-0.125-0.538-0.087-0.638 0.112-0.1 0.25-0.175 0.438-0.226 0.563-0.1 0.325-0.524 0.413-1.274 0.263-0.65 0-1.213-0.063-1.688-0.188-0.375-0.1-0.663-0.238-0.862-0.412-0.225-0.175-0.425-0.475-0.6-0.901z" fill="#D43F00"/>
			<path d="m18.975-16.612c-0.375-0.575-0.85-1.15-1.425-1.726-0.25-0.25-0.5-0.399-0.75-0.449-0.3 0.024-0.55 0.037-0.75 0.037-0.425 0-0.987 0.125-1.688 0.375-0.8 0.325-1.587 0.462-2.362 0.412-0.425-0.05-0.75-0.074-0.975-0.074-0.351 0-0.688 0.074-1.013 0.225l-0.938 0.338c-0.174-0.076-0.462-0.251-0.861-0.526-0.275-0.2-0.55-0.288-0.825-0.263-0.325 0-0.601 0.1-0.825 0.3-0.125 0.1-0.313 0.313-0.563 0.638-0.125 0.175-0.25 0.487-0.375 0.938-0.1 0.425-0.188 0.675-0.263 0.75-0.149 0.125-0.437 0.275-0.862 0.45-0.475 0.25-0.913 0.412-1.313 0.487-0.35 0.075-0.763 0.288-1.237 0.638-0.575 0.425-0.875 0.638-0.9 0.638-0.175 0.075-0.25 0.188-0.225 0.337 0.05 0.125 0.125 0.226 0.225 0.301l2.513 1.086c14.325 1.625 21.9 2.388 22.725 2.288 0.525-0.075 0.788-0.226 0.788-0.45 0-0.125-0.088-0.338-0.263-0.638-0.05-0.125-0.15-0.3-0.3-0.525-0.125-0.25-0.188-0.537-0.188-0.862 0.025-0.65-0.4-1.137-1.275-1.462-0.475-0.175-0.787-0.325-0.938-0.45-0.25-0.2-0.475-0.55-0.675-1.05-0.2-0.45-0.65-0.713-1.35-0.788-0.775 0-1.3-0.012-1.575-0.037-0.4-0.075-0.713-0.175-0.938-0.3-0.199-0.126-0.399-0.339-0.599-0.638z" fill="#EB4600"/>
			<path d="m6.75-19.275c0.125 0.025 0.238-0.05 0.338-0.225 0.125-0.175 0.174-0.362 0.149-0.563-0.025-0.174-0.137-0.287-0.337-0.337-0.175-0.024-0.288 0.05-0.338 0.226-0.05 0.149-0.05 0.337 0 0.563 0.051 0.173 0.113 0.286 0.188 0.336z" fill="#EB4600"/>
			<path d="m6.713-20.737c0.3-0.25 0.325-0.4 0.074-0.45-0.3-0.075-0.475-0.05-0.524 0.075-0.05 0.05-0.013 0.149 0.112 0.3 0.125 0.124 0.238 0.15 0.338 0.075z" fill="#EB4600"/>
			<path d="m0.638-14.362c0.175-0.4 0.188-0.7 0.037-0.9-0.2-0.2-0.313-0.2-0.337 0-0.025 0.125 0.012 0.325 0.112 0.601 0.075 0.274 0.137 0.374 0.188 0.299z" fill="#EB4600"/>
			<path d="m15.037-19.95c0.201-0.1 0.263-0.263 0.188-0.487-0.1-0.225-0.2-0.263-0.3-0.112-0.075 0.1-0.1 0.237-0.075 0.412 0.05 0.15 0.113 0.212 0.187 0.187z" fill="#EB4600"/>
			<path d="m17.362-21.375c0.2-0.3 0.3-0.6 0.3-0.9 0-0.275-0.1-0.35-0.3-0.225-0.175 0.125-0.237 0.375-0.188 0.75 0.026 0.4 0.089 0.525 0.188 0.375z" fill="#EB4600"/>
			<path d="m24.112-15.6c0.125-0.05 0.2-0.201 0.226-0.45 0.05-0.275-0.013-0.45-0.188-0.525s-0.313-0.025-0.413 0.15c-0.075 0.175-0.112 0.35-0.112 0.524 0 0.125 0.063 0.226 0.188 0.301 0.1 0.05 0.2 0.05 0.299 0z" fill="#EB4600"/>
			<path d="m27.675-10.237c0.226-0.075 0.35-0.138 0.375-0.188 0-0.05-0.025-0.112-0.075-0.188-0.024-0.075-0.1-0.075-0.225 0-0.2 0.1-0.325 0.149-0.375 0.149-0.125 0.025-0.125 0.075 0 0.15 0.1 0.077 0.2 0.102 0.3 0.077z" fill="#EB4600"/>
			<path d="m25.95-9.112c0.524-0.2 0.85-0.338 0.975-0.413 0.175-0.125 0.226-0.3 0.15-0.524-0.1-0.3-0.875-0.888-2.325-1.763-0.2-0.975-0.538-1.663-1.013-2.063-0.8-0.75-2.112-1.438-3.938-2.063-1.2-0.425-2.25-0.7-3.149-0.825-1-0.125-2.275-0.137-3.825-0.037-1.325 0.1-2.575 0.412-3.75 0.938l-1.388 0.75c-1.325 0-2.7 0.2-4.125 0.6-0.9 0.275-1.587 0.638-2.063 1.088l-0.45 0.638c0.575 0.575 1.237 1.125 1.987 1.649 14.652 1.574 22.289 2.249 22.914 2.025z" fill="#852700"/>
			<path d="m6.638-16.088c0.775-0.325 1.1-0.712 0.975-1.162s-0.45-0.563-0.975-0.338c-0.426 0.175-0.588 0.488-0.488 0.938 0.075 0.475 0.238 0.662 0.488 0.562z" fill="#FF7F47"/>
			<path d="m15.825-17.4c0.825-0.05 1.162-0.262 1.013-0.637-0.15-0.375-0.488-0.513-1.013-0.413-0.45 0.1-0.663 0.3-0.638 0.601 0.025 0.324 0.238 0.474 0.638 0.449z" fill="#FF7F47"/>
			<path d="m25.5-12.075c0.625-0.25 0.525-0.563-0.3-0.938-0.325-0.125-0.413 0.025-0.263 0.45s0.338 0.588 0.563 0.488z" fill="#FF7F47"/>
				<linearGradient id="j" x1="479.5" x2="501.86" y1="428.75" y2="428.75" gradientTransform="matrix(.7488 .042 -.042 .7488 -333.42 -352.2)" gradientUnits="userSpaceOnUse">
				<stop stop-color="#FDCB53" offset="0"/>
				<stop stop-color="#D48801" offset="1"/>
			</linearGradient>
			<path d="m7.838-14.438c0.25 1.075 0.662 2.25 1.237 3.525 1.125 2.575 2.513 4.375 4.162 5.399 1.85 1.175 4.138 1.025 6.862-0.45 2.601-1.4 4.038-3.012 4.313-4.837 0.375-2.625-2.237-4.438-7.837-5.438-2.175-0.375-4.15-0.3-5.925 0.225-1.375 0.401-2.313 0.927-2.812 1.576z" fill="url(#j)"/>
			<path d="m23.625-9.188l0.225-0.188c0.301-0.475 0.488-0.95 0.563-1.425 0.375-2.625-2.237-4.438-7.837-5.438-2.175-0.375-4.15-0.3-5.925 0.225-1.375 0.4-2.313 0.925-2.813 1.575 0.225 1 0.6 2.1 1.125 3.3 1.05 2.45 2.324 4.225 3.824 5.325 0.375 0.125 0.576 0.125 0.601 0 0.025-0.1 0.112-0.438 0.263-1.013 0.675-1.625 0.524-2.975-0.45-4.05-0.475-0.55-1.025-0.925-1.65-1.125l-0.225-1.537c0.375-0.951 1.837-1.25 4.388-0.9 3.325 0.425 5.637 1.425 6.938 3 0.648 0.802 0.973 1.552 0.973 2.251z" fill="#C98000"/>
			<path d="m3.6-8.175c1.4 0.625 2.9 1.175 4.5 1.65 3.226 0.976 5.325 1.138 6.301 0.488 1.225-0.825 1.112-2.338-0.338-4.538-1.475-2.25-3.2-3.275-5.175-3.075-3.35 0.375-5.3 0.638-5.851 0.788-1.5 0.4-2.262 1.2-2.287 2.399-0.025 1.075 0.275 1.675 0.9 1.801 1.175 0.224 1.825 0.387 1.95 0.487z" fill="#EDE2AD"/>
				<linearGradient id="k" x1="-1589.9" x2="-1581" y1="-14336" y2="-14336" gradientTransform="matrix(.1645 -.7317 .7317 .1645 10759 1187.6)" gradientUnits="userSpaceOnUse">
				<stop stop-color="#FDCB53" offset="0"/>
				<stop stop-color="#D48801" offset="1"/>
			</linearGradient>
			<path d="m2.888-6.563c1.4 0.35 2.9 0.625 4.5 0.825 3.225 0.425 5.325 0.313 6.3-0.338 1.2-0.825 1.325-2.138 0.375-3.938s-2.513-3.175-4.688-4.125c-2.075-0.899-4.175-0.875-6.3 0.075-2 0.925-3.013 2.113-3.038 3.563-0.024 0.801 0.113 1.464 0.413 1.988 0.225 0.375 0.587 0.738 1.087 1.088 0.601 0.35 1.051 0.638 1.351 0.862z" fill="url(#k)"/>
				<linearGradient id="l" x1="10960" x2="10977" y1="-19358" y2="-19358" gradientTransform="matrix(-.6436 -.385 .385 -.6436 14521 -8246.1)" gradientUnits="userSpaceOnUse">
				<stop stop-color="#D69211" offset="0"/>
				<stop stop-color="#C98000" offset="1"/>
			</linearGradient>
			<path d="m9.375-14.138c-2.075-0.899-4.175-0.875-6.3 0.075-2 0.925-3.013 2.113-3.038 3.563 0 0.45 0.025 0.763 0.075 0.938 0.375-2.4 2.325-3.6 5.851-3.6 2.15 0.024 4.1 0.612 5.85 1.762 1.7 1.101 2.65 2.363 2.85 3.788 0.025-1.5-0.687-2.95-2.137-4.351-1.026-0.975-2.076-1.7-3.151-2.175z" fill="url(#l)"/>
			<path d="m9.787-1.8c0.726 0 1.575-0.675 2.551-2.025 0.5-0.675 0.912-1.35 1.237-2.024 0.25 0 0.313-0.063 0.188-0.188-0.25-0.201-1.288-0.55-3.112-1.051-2.3-0.65-4.476-0.938-6.525-0.862-1.026 0.025-1.826 0.125-2.401 0.3-0.325 0.25-0.5 0.6-0.525 1.05-0.05 0.9 0.675 1.837 2.175 2.813 0.975 0.65 2.337 1.175 4.088 1.574 0.874 0.201 1.649 0.338 2.324 0.413z" fill="#EDE2AD"/>
				<linearGradient id="m" x1="468.03" x2="488.24" y1="434.87" y2="434.87" gradientTransform="matrix(.7488 .0418 -.0418 .7488 -331.74 -350.33)" gradientUnits="userSpaceOnUse">
				<stop stop-color="#FDCB53" offset="0"/>
				<stop stop-color="#D48801" offset="1"/>
			</linearGradient>
			<path d="m9.412-1.763c0.726 0.025 2-0.5 3.825-1.575 0.926-0.524 1.763-1.05 2.513-1.574-0.575-0.4-2.3-1-5.175-1.801-2.3-0.65-4.575-1.025-6.825-1.125-1.125-0.05-2.025-0.037-2.7 0.038-0.275 0.275-0.4 0.65-0.375 1.125 0.05 0.975 0.825 1.963 2.325 2.962 1.6 1.051 3.737 1.701 6.412 1.95z" fill="url(#m)"/>
			<path d="m13.35-6.15c-1.475 0.825-2.65 1.587-3.525 2.288-0.75 0.6-1.038 1.137-0.862 1.612 0.2 0.575 1.112 1.075 2.737 1.5 2.399 0.6 4.637 0.525 6.712-0.225 1.051-0.4 1.863-0.85 2.438-1.351-0.575 0-1.225-0.062-1.949-0.188-1.45-0.2-2.538-0.563-3.263-1.087-1.2-0.824-1.963-1.674-2.288-2.549z" fill="#EDE2AD"/>
				<linearGradient id="n" x1="474.72" x2="490.59" y1="432.38" y2="432.38" gradientTransform="matrix(.7489 .0413 -.0413 .7489 -328.53 -346.74)" gradientUnits="userSpaceOnUse">
				<stop stop-color="#FDCB53" offset="0"/>
				<stop stop-color="#D48801" offset="1"/>
			</linearGradient>
			<path d="m13.688-6.075c-1.625 1-2.875 1.85-3.75 2.55-1.625 1.351-1 2.388 1.875 3.113 2.4 0.6 4.637 0.524 6.713-0.226 1.05-0.4 1.862-0.85 2.438-1.35-0.576 0-1.225-0.063-1.95-0.188-1.45-0.2-2.538-0.563-3.263-1.088-0.75-0.524-1.313-1.15-1.688-1.875l-0.375-0.936z" fill="url(#n)"/>
			<path d="m21.525-5.55c-2.35 0.3-4.426 0.325-6.226 0.075l-1.987-0.45c-0.05 0.275 0.013 0.612 0.188 1.013 0.325 0.824 1.063 1.562 2.213 2.212 1.875 1.1 3.8 1.337 5.774 0.713 2.025-0.65 3.575-1.987 4.65-4.013 0.826-1.55 0.863-2.712 0.113-3.487l-1.388-0.675c0.05 0.7-0.05 1.412-0.3 2.137-0.499 1.45-1.512 2.275-3.037 2.475z" fill="#EDE2AD"/>
				<linearGradient id="o" x1="488.19" x2="506.5" y1="433.74" y2="433.74" gradientTransform="matrix(.7488 .042 -.042 .7488 -333.62 -352.42)" gradientUnits="userSpaceOnUse">
				<stop stop-color="#FDCB53" offset="0"/>
				<stop stop-color="#D48801" offset="1"/>
			</linearGradient>
			<path d="m20.588-6.525c-1.9 0.85-3.613 1.175-5.138 0.976l-1.763-0.525c-0.05 0.274 0.013 0.612 0.188 1.011 0.325 0.8 1.063 1.537 2.213 2.213 1.925 1.1 3.938 1.437 6.037 1.012 2.225-0.475 3.862-1.7 4.912-3.675 0.825-1.55 0.638-3.037-0.563-4.462l-2.063-1.65c-0.1 0.6-0.337 1.262-0.712 1.987-0.724 1.475-1.761 2.513-3.111 3.113z" fill="url(#o)"/>
			<path d="m24.412-11.625c-0.125 0.65-0.387 1.35-0.787 2.1 1.175 0.5 1.962 1.213 2.362 2.138 0.525 1.2 0.288 2.538-0.712 4.013 0.7-0.575 1.287-1.288 1.762-2.138 0.825-1.55 0.638-3.037-0.563-4.462l-2.062-1.651z" fill="#C98000"/>
			<path d="m20.85-6.6c-2.049 0.8-3.862 1.125-5.438 0.975l-1.725-0.45c-0.249-0.125-0.362-0.1-0.337 0.075 1.175 0.575 2.551 0.8 4.125 0.675 1.5-0.149 2.9-0.6 4.2-1.35 0.65-0.375 1.175-0.913 1.575-1.612 0.339-0.606 0.539-1.225 0.6-1.856-0.072 0.612-0.434 1.293-1.087 2.043-0.675 0.775-1.313 1.275-1.913 1.5z" fill="#EDE2AD"/>
			<path d="m13.5-5.662c0.375 0.074 0.725 0.112 1.05 0.112 0.3 0 0.375-0.038 0.226-0.112-0.401-0.151-0.576-0.338-0.526-0.563 0.025-0.1-0.05-0.125-0.225-0.075-0.325 0.1-0.8 0.062-1.426-0.112l-0.074-0.038c0.13 0.083 0.243 0.196 0.337 0.338l0.188 0.337c0.1 0 0.25 0.038 0.45 0.113z" fill="#EDE2AD"/>
			<path d="m6.075-2.475c0.3 0 0.45-0.1 0.45-0.301 0-0.174-0.138-0.325-0.413-0.449-0.474-0.25-0.812-0.213-1.012 0.113-0.074 0.125-0.024 0.25 0.15 0.375 0.225 0.149 0.5 0.237 0.825 0.262z" fill="#A88A43"/>
			<path d="m5.963-2.4c0.3 0.025 0.449-0.062 0.449-0.262 0-0.175-0.125-0.325-0.375-0.45-0.5-0.25-0.85-0.212-1.05 0.112-0.075 0.1-0.012 0.225 0.188 0.375 0.225 0.15 0.487 0.225 0.788 0.225z" fill="#EDE2AD"/>
			<path d="m5.813-2.513c0.3 0 0.35-0.087 0.15-0.263-0.1-0.1-0.226-0.162-0.375-0.188-0.175-0.049-0.288-0.023-0.338 0.076-0.05 0.1-0.013 0.188 0.112 0.263 0.126 0.1 0.276 0.137 0.451 0.112z" fill="#fff"/>
			<path d="m8.175-3.188c0.575-0.025 0.788-0.15 0.638-0.375-0.175-0.224-0.488-0.337-0.938-0.337-0.375 0-0.487 0.125-0.338 0.375 0.175 0.25 0.388 0.362 0.638 0.337z" fill="#A88A43"/>
			<path d="m4.912-4.725c0.4 0.074 0.55-0.013 0.45-0.263s-0.275-0.35-0.524-0.3c-0.226 0.025-0.325 0.113-0.301 0.263 0.05 0.15 0.175 0.25 0.375 0.3z" fill="#A88A43"/>
			<path d="m10.875-7.838c0.425-0.074 0.525-0.2 0.3-0.375-0.225-0.174-0.475-0.237-0.75-0.187-0.25 0.05-0.325 0.175-0.225 0.375s0.325 0.262 0.675 0.187z" fill="#A88A43"/>
			<path d="m7.537-10.237c0.351 0.075 0.576 0.025 0.676-0.15 0.1-0.2-0.05-0.287-0.45-0.263-0.35 0-0.513 0.063-0.487 0.188-1e-3 0.125 0.087 0.2 0.261 0.225z" fill="#A88A43"/>
			<path d="m18.375-6.862c0.575 0 0.875-0.125 0.9-0.375 0-0.275-0.25-0.388-0.75-0.338-0.425 0.05-0.625 0.175-0.6 0.375s0.175 0.313 0.45 0.338z" fill="#A88A43"/>
			<path d="m23.662-3.375c0.525-0.125 0.713-0.338 0.563-0.638-0.149-0.275-0.437-0.313-0.862-0.112-0.4 0.175-0.512 0.362-0.337 0.563 0.149 0.2 0.361 0.262 0.636 0.187z" fill="#A88A43"/>
			<path d="m19.313-2.362c-0.05-0.375-0.3-0.538-0.75-0.487-0.451 0.024-0.638 0.161-0.563 0.411 0.05 0.2 0.288 0.313 0.713 0.338 0.425 0.05 0.624-0.038 0.6-0.262z" fill="#A88A43"/>
			<path d="m20.325-4.425c0.7-0.15 0.85-0.375 0.45-0.675-0.375-0.3-0.788-0.35-1.238-0.15-0.399 0.175-0.487 0.388-0.262 0.638 0.25 0.224 0.6 0.287 1.05 0.187z" fill="#A88A43"/>
			<path d="m15.188-0.412c0.6 0.024 0.813-0.15 0.638-0.525-0.175-0.4-0.513-0.563-1.013-0.487-0.451 0.049-0.588 0.224-0.413 0.524s0.437 0.462 0.788 0.488z" fill="#A88A43"/>
			<path d="m5.325-8.25c0.65 0 0.85-0.175 0.6-0.525-0.275-0.35-0.65-0.425-1.125-0.225-0.425 0.175-0.538 0.35-0.337 0.525 0.174 0.125 0.462 0.2 0.862 0.225z" fill="#A88A43"/>
			<path d="m11.775-2.287c0.6-0.1 0.737-0.363 0.412-0.788-0.325-0.4-0.663-0.475-1.013-0.225-0.325 0.2-0.387 0.437-0.188 0.712 0.202 0.251 0.464 0.351 0.789 0.301z" fill="#A88A43"/>
			<path d="m8.1-3.112c0.576-0.025 0.788-0.15 0.638-0.375-0.175-0.226-0.488-0.338-0.938-0.338-0.375 0-0.487 0.125-0.337 0.375 0.174 0.25 0.387 0.363 0.637 0.338z" fill="#EDE2AD"/>
			<path d="m4.838-4.65c0.399 0.075 0.549-0.012 0.449-0.262-0.074-0.25-0.25-0.351-0.524-0.301-0.2 0.025-0.288 0.113-0.263 0.263 0.05 0.15 0.163 0.25 0.338 0.3z" fill="#EDE2AD"/>
			<path d="m10.8-7.763c0.425-0.075 0.525-0.2 0.3-0.375-0.2-0.175-0.437-0.237-0.712-0.188-0.25 0.05-0.325 0.163-0.226 0.338 0.1 0.2 0.313 0.276 0.638 0.225z" fill="#EDE2AD"/>
			<path d="m7.5-10.162c0.35 0.074 0.575 0.012 0.675-0.188 0.075-0.175-0.087-0.263-0.487-0.263-0.375 0.025-0.538 0.1-0.487 0.225 0.024 0.126 0.124 0.2 0.299 0.226z" fill="#EDE2AD"/>
			<path d="m18.338-6.825c0.575 0.025 0.862-0.1 0.862-0.375 0.025-0.25-0.212-0.35-0.713-0.3-0.425 0.025-0.625 0.15-0.6 0.375 0.026 0.2 0.176 0.3 0.451 0.3z" fill="#EDE2AD"/>
			<path d="m23.588-3.3c0.524-0.125 0.712-0.338 0.563-0.638-0.15-0.3-0.438-0.338-0.863-0.112-0.399 0.175-0.512 0.362-0.337 0.563 0.149 0.199 0.362 0.262 0.637 0.187z" fill="#EDE2AD"/>
			<path d="m19.275-2.287c-0.075-0.351-0.337-0.513-0.788-0.488-0.45 0.025-0.638 0.15-0.563 0.375 0.05 0.201 0.3 0.325 0.75 0.375 0.451 0.025 0.651-0.062 0.601-0.262z" fill="#EDE2AD"/>
			<path d="m20.25-4.35c0.725-0.15 0.887-0.375 0.487-0.676-0.375-0.3-0.8-0.35-1.274-0.149-0.4 0.175-0.488 0.387-0.263 0.638 0.25 0.224 0.6 0.287 1.05 0.187z" fill="#EDE2AD"/>
			<path d="m15.112-0.338c0.601 0.025 0.813-0.149 0.638-0.524-0.175-0.4-0.5-0.575-0.975-0.525-0.45 0.075-0.601 0.263-0.45 0.563 0.175 0.299 0.437 0.462 0.787 0.486z" fill="#EDE2AD"/>
			<path d="m5.287-8.175c0.626 0 0.813-0.175 0.563-0.525s-0.625-0.425-1.125-0.225c-0.45 0.175-0.563 0.35-0.337 0.525 0.175 0.125 0.474 0.2 0.899 0.225z" fill="#EDE2AD"/>
			<path d="m11.7-2.213c0.6-0.1 0.737-0.362 0.412-0.787-0.324-0.4-0.662-0.475-1.012-0.225-0.325 0.2-0.375 0.437-0.149 0.712 0.199 0.25 0.449 0.35 0.749 0.3z" fill="#EDE2AD"/>
			<path d="m7.987-3.225c0.175 0.024 0.275 0 0.3-0.075 0-0.075-0.087-0.112-0.262-0.112-0.175-0.025-0.25 0-0.226 0.074 1e-3 0.05 0.063 0.088 0.188 0.113z" fill="#fff"/>
			<path d="m4.95-4.763c0.125 0 0.163-0.037 0.112-0.112s-0.137-0.1-0.262-0.075c-0.149 0-0.2 0.025-0.149 0.075 0.074 0.075 0.174 0.112 0.299 0.112z" fill="#fff"/>
			<path d="m5.25-8.325c0.3-0.025 0.325-0.1 0.075-0.225-0.225-0.125-0.425-0.162-0.6-0.112-0.15 0.074-0.15 0.162 0 0.262 0.175 0.1 0.35 0.125 0.525 0.075z" fill="#fff"/>
			<path d="m10.688-7.838c0.225-0.05 0.275-0.112 0.15-0.188-0.15-0.074-0.288-0.087-0.413-0.037-0.1 0.025-0.112 0.075-0.037 0.15 0.099 0.075 0.199 0.1 0.3 0.075z" fill="#fff"/>
			<path d="m7.65-10.237c0.175-0.025 0.225-0.063 0.15-0.113-0.075-0.025-0.175-0.038-0.3-0.038-0.1 0.025-0.112 0.063-0.037 0.112 0.05 0.051 0.112 0.064 0.187 0.039z" fill="#fff"/>
			<path d="m18.6-6.975c0.275-0.1 0.301-0.188 0.075-0.263-0.25-0.05-0.412-0.013-0.487 0.112-0.1 0.1-0.087 0.163 0.037 0.188 0.1 0.025 0.225 0.013 0.375-0.037z" fill="#fff"/>
			<path d="m20.175-4.463c0.35-0.074 0.375-0.174 0.075-0.3-0.3-0.149-0.538-0.175-0.713-0.075-0.149 0.1-0.125 0.201 0.075 0.301 0.201 0.099 0.388 0.124 0.563 0.074z" fill="#fff"/>
			<path d="m23.438-3.525l0.45-0.375c0.075-0.074-0.013-0.112-0.263-0.112-0.25 0.025-0.412 0.088-0.487 0.188-0.1 0.1-0.1 0.188 0 0.263 0.075 0.074 0.175 0.086 0.3 0.036z" fill="#fff"/>
			<path d="m18.6-2.175c0.25-0.05 0.288-0.125 0.113-0.226-0.15-0.125-0.301-0.149-0.45-0.074-0.125 0.05-0.125 0.112 0 0.188 0.125 0.099 0.237 0.137 0.337 0.112z" fill="#fff"/>
			<path d="m15.112-0.45c0.325-0.025 0.388-0.125 0.188-0.3-0.225-0.2-0.4-0.25-0.525-0.15-0.1 0.1-0.113 0.201-0.038 0.301 0.1 0.099 0.226 0.149 0.375 0.149z" fill="#fff"/>
			<path d="m11.438-2.325c0.3-0.075 0.375-0.212 0.225-0.412-0.174-0.2-0.337-0.25-0.487-0.15-0.125 0.075-0.149 0.2-0.075 0.375 0.074 0.15 0.186 0.212 0.337 0.187z" fill="#fff"/>
		</g>
</symbol>
		<use transform="matrix(.7759 0 0 -.7759 20.85 3.9502)" x="-0.028" y="-24.653" width="28.955" height="24.641" xlink:href="#a"/>
		<use transform="matrix(.8987 0 0 -.8987 30.2 8.5498)" x="-0.028" y="-24.653" width="28.955" height="24.641" xlink:href="#a"/>
		<use transform="matrix(.8987 0 0 -.8501 4.2002 8.5498)" x="-0.028" y="-24.653" width="28.955" height="24.641" xlink:href="#a"/>
		<use transform="matrix(1 0 0 -1 9.75 14.65)" x="-0.028" y="-24.653" width="28.955" height="24.641" xlink:href="#a"/>
</svg>
